<svg xmlns="http://www.w3.org/2000/svg" xmlns:xlink="http://www.w3.org/1999/xlink" viewBox="0 0 64 64"><defs><style>.cls-1{fill:url(#linear-gradient);}.cls-2{fill:url(#linear-gradient-2);}.cls-3{fill:#cf4055;}.cls-4{fill:url(#linear-gradient-3);}.cls-5{fill:url(#linear-gradient-4);}.cls-6{fill:url(#linear-gradient-5);}.cls-7{fill:url(#linear-gradient-6);}.cls-8{fill:url(#linear-gradient-8);}.cls-9{fill:url(#linear-gradient-10);}.cls-10{fill:url(#linear-gradient-11);}.cls-11{fill:url(#linear-gradient-12);}.cls-12{fill:url(#linear-gradient-13);}.cls-13{fill:url(#linear-gradient-15);}.cls-14{fill:url(#linear-gradient-17);}.cls-15{fill:#231f20;}</style><linearGradient id="linear-gradient" x1="8.62" y1="20.5" x2="8.62" y2="16.5" gradientUnits="userSpaceOnUse"><stop offset="0" stop-color="#da5466"/><stop offset="1" stop-color="#f4929c"/></linearGradient><linearGradient id="linear-gradient-2" x1="32" y1="52" x2="32" y2="12" xlink:href="#linear-gradient"/><linearGradient id="linear-gradient-3" x1="32" y1="7" x2="32" y2="1" xlink:href="#linear-gradient"/><linearGradient id="linear-gradient-4" x1="32" y1="63" x2="32" y2="57" xlink:href="#linear-gradient"/><linearGradient id="linear-gradient-5" x1="4" y1="35" x2="4" y2="29" xlink:href="#linear-gradient"/><linearGradient id="linear-gradient-6" x1="60" y1="35" x2="60" y2="29" xlink:href="#linear-gradient"/><linearGradient id="linear-gradient-8" x1="18.5" y1="10.62" x2="18.5" y2="6.62" xlink:href="#linear-gradient"/><linearGradient id="linear-gradient-10" x1="45.5" y1="57.38" x2="45.5" y2="53.38" xlink:href="#linear-gradient"/><linearGradient id="linear-gradient-11" x1="18.5" y1="57.38" x2="18.5" y2="53.38" xlink:href="#linear-gradient"/><linearGradient id="linear-gradient-12" x1="45.5" y1="10.62" x2="45.5" y2="6.62" xlink:href="#linear-gradient"/><linearGradient id="linear-gradient-13" x1="8.62" y1="47.5" x2="8.62" y2="43.5" xlink:href="#linear-gradient"/><linearGradient id="linear-gradient-15" x1="55.38" y1="20.5" x2="55.38" y2="16.5" xlink:href="#linear-gradient"/><linearGradient id="linear-gradient-17" x1="55.38" y1="47.5" x2="55.38" y2="43.5" xlink:href="#linear-gradient"/></defs><title>Corona Virus</title><g id="Corona_Virus" data-name="Corona Virus"><circle class="cls-1" cx="8.62" cy="18.5" r="2"/><circle class="cls-2" cx="32" cy="32" r="20"/><path class="cls-3" d="M52,32a19.93,19.93,0,0,1-9.07,16.74,16.61,16.61,0,0,1-1.73,1,19.93,19.93,0,0,1-18.4,0,16.61,16.61,0,0,1-1.73-1A19.93,19.93,0,0,1,12,32a18.86,18.86,0,0,1,.1-2A20,20,0,0,0,22.89,45.81a16.48,16.48,0,0,0,1.54.7,20,20,0,0,0,15.14,0,16.48,16.48,0,0,0,1.54-.7A20,20,0,0,0,51.9,30,18.86,18.86,0,0,1,52,32Z"/><circle class="cls-4" cx="32" cy="4" r="3"/><circle class="cls-5" cx="32" cy="60" r="3"/><circle class="cls-6" cx="4" cy="32" r="3"/><circle class="cls-7" cx="60" cy="32" r="3"/><circle class="cls-4" cx="32" cy="4" r="3"/><circle class="cls-8" cx="18.5" cy="8.62" r="2"/><circle class="cls-5" cx="32" cy="60" r="3"/><circle class="cls-9" cx="45.5" cy="55.38" r="2"/><circle class="cls-10" cx="18.5" cy="55.38" r="2"/><circle class="cls-11" cx="45.5" cy="8.62" r="2"/><circle class="cls-12" cx="8.62" cy="45.5" r="2"/><circle class="cls-12" cx="8.62" cy="45.5" r="2"/><circle class="cls-13" cx="55.38" cy="18.5" r="2"/><circle class="cls-13" cx="55.38" cy="18.5" r="2"/><circle class="cls-14" cx="55.38" cy="45.5" r="2"/><circle class="cls-14" cx="55.38" cy="45.5" r="2"/><circle class="cls-1" cx="8.62" cy="18.5" r="2"/><circle class="cls-3" cx="28.5" cy="25.5" r="3.5"/><circle class="cls-3" cx="36" cy="40" r="3"/><circle class="cls-3" cx="40.5" cy="27.5" r="2.5"/><circle class="cls-3" cx="23" cy="36" r="2"/><circle class="cls-8" cx="18.5" cy="8.62" r="2"/><circle class="cls-11" cx="45.5" cy="8.62" r="2"/><circle class="cls-7" cx="60" cy="32" r="3"/><circle class="cls-9" cx="45.5" cy="55.38" r="2"/><circle class="cls-10" cx="18.5" cy="55.38" r="2"/><circle class="cls-6" cx="4" cy="32" r="3"/><path class="cls-15" d="M60,28a4,4,0,0,0-3.86,3H53a20.91,20.91,0,0,0-2.3-8.62l2.8-1.61a3,3,0,0,0,1.94.73A3,3,0,0,0,58,17a3,3,0,0,0-5.5.72,3.1,3.1,0,0,0,0,1.32l-2.8,1.61a21,21,0,0,0-6.3-6.3L45,11.55a3.33,3.33,0,0,0,.54.07,3.47,3.47,0,0,0,.78-.1,3,3,0,1,0-3.05-1l-1.62,2.79A20.83,20.83,0,0,0,33,11.05V7.86a4,4,0,1,0-2,0v3.19a20.83,20.83,0,0,0-8.61,2.3l-1.62-2.79a3,3,0,1,0-3.05,1,3.47,3.47,0,0,0,.78.1,3.33,3.33,0,0,0,.54-.07l1.62,2.8a21,21,0,0,0-6.3,6.3L11.56,19a3.1,3.1,0,0,0,0-1.32,3,3,0,1,0-4.4,3.38,3,3,0,0,0,1.49.4,3,3,0,0,0,1.94-.73l2.8,1.61A20.91,20.91,0,0,0,11.05,31H7.86a4,4,0,1,0,0,2h3.19a20.91,20.91,0,0,0,2.3,8.62l-2.79,1.61a3,3,0,1,0,1,3.05,3.1,3.1,0,0,0,0-1.32l2.8-1.61a21,21,0,0,0,6.3,6.3L19,52.44a3.1,3.1,0,0,0-1.32,0,3,3,0,1,0,3.05,1l1.62-2.79A20.83,20.83,0,0,0,31,53v3.19a4,4,0,1,0,2,0V53a20.83,20.83,0,0,0,8.61-2.3l1.62,2.79a3,3,0,1,0,3.05-1,3.1,3.1,0,0,0-1.32,0l-1.62-2.79a21,21,0,0,0,6.3-6.3L52.44,45a3.1,3.1,0,0,0,0,1.32,3,3,0,1,0,1-3.05l-2.79-1.61A20.91,20.91,0,0,0,53,33h3.19A4,4,0,1,0,60,28Zm-5.58-9.76a1,1,0,1,1,1.46,1.13A1,1,0,0,1,54.52,19,1,1,0,0,1,54.42,18.24ZM44.63,8.12a1,1,0,1,1,1.13,1.46,1,1,0,0,1-.76-.1A1,1,0,0,1,44.63,8.12ZM18.24,9.58a1,1,0,1,1,1.13-1.46A1,1,0,0,1,19,9.48h0A1,1,0,0,1,18.24,9.58ZM8.12,19.37a1,1,0,1,1,1.46-1.13,1,1,0,0,1-.1.76A1,1,0,0,1,8.12,19.37ZM9.58,45.76a1,1,0,1,1-1.46-1.13A1,1,0,0,1,9.48,45,1,1,0,0,1,9.58,45.76Zm9.79,10.12a1,1,0,1,1-1.13-1.46.78.78,0,0,1,.26,0,1,1,0,0,1,.87,1.5Zm26.39-1.46a1,1,0,1,1-1.13,1.46A1,1,0,0,1,45,54.52h0a1,1,0,0,1,.5-.14A.78.78,0,0,1,45.76,54.42Zm9.62-9.92a1,1,0,0,1,.5.13,1,1,0,1,1-1.46,1.13,1,1,0,0,1,.1-.76A1,1,0,0,1,55.38,44.5ZM30,4a2,2,0,1,1,2,2A2,2,0,0,1,30,4ZM4,34a2,2,0,1,1,2-2A2,2,0,0,1,4,34ZM34,60a2,2,0,1,1-2-2A2,2,0,0,1,34,60Zm8.34-12.08-1-1.7a1,1,0,0,0-1.74,1l1,1.69a18.78,18.78,0,0,1-17.22,0l1-1.69a1,1,0,0,0-1.74-1l-1,1.7A19,19,0,0,1,13.05,33H15a1,1,0,0,0,0-2H13.05a19,19,0,0,1,8.61-14.92l1,1.7a1,1,0,0,0,1.37.36,1,1,0,0,0,.37-1.36l-1-1.69a18.78,18.78,0,0,1,17.22,0l-1,1.69A1,1,0,0,0,40,18.14a1,1,0,0,0,1.37-.36l1-1.7A19,19,0,0,1,51,31H49a1,1,0,0,0,0,2h2A19,19,0,0,1,42.34,47.92ZM60,34a2,2,0,1,1,2-2A2,2,0,0,1,60,34Z"/><path class="cls-15" d="M28.5,21A4.5,4.5,0,1,0,33,25.5,4.51,4.51,0,0,0,28.5,21Zm0,7A2.5,2.5,0,1,1,31,25.5,2.5,2.5,0,0,1,28.5,28Z"/><path class="cls-15" d="M36,36a4,4,0,1,0,4,4A4,4,0,0,0,36,36Zm0,6a2,2,0,1,1,2-2A2,2,0,0,1,36,42Z"/><path class="cls-15" d="M40.5,24A3.5,3.5,0,1,0,44,27.5,3.5,3.5,0,0,0,40.5,24Zm0,5A1.5,1.5,0,1,1,42,27.5,1.5,1.5,0,0,1,40.5,29Z"/><path class="cls-15" d="M23,33a3,3,0,1,0,3,3A3,3,0,0,0,23,33Zm0,4a1,1,0,1,1,1-1A1,1,0,0,1,23,37Z"/></g></svg>