<svg xmlns="http://www.w3.org/2000/svg" xmlns:xlink="http://www.w3.org/1999/xlink" viewBox="0 0 64 64"><defs><style>.cls-1{fill:url(#linear-gradient);}.cls-2{fill:url(#linear-gradient-3);}.cls-3{fill:url(#linear-gradient-4);}.cls-4{fill:url(#linear-gradient-5);}.cls-5{fill:url(#linear-gradient-6);}.cls-6{fill:#9ca0ad;}.cls-7{fill:#42455e;}.cls-8{fill:#8288a1;}.cls-9{fill:url(#linear-gradient-7);}.cls-10{fill:url(#linear-gradient-8);}.cls-11{fill:#cf4055;}.cls-12{fill:#231f20;}</style><linearGradient id="linear-gradient" x1="28" y1="53" x2="28" y2="1" gradientUnits="userSpaceOnUse"><stop offset="0" stop-color="#a0a6ba"/><stop offset="1" stop-color="#c6ccda"/></linearGradient><linearGradient id="linear-gradient-3" x1="25" y1="63" x2="25" y2="59" gradientUnits="userSpaceOnUse"><stop offset="0" stop-color="#474f72"/><stop offset="1" stop-color="#878c9f"/></linearGradient><linearGradient id="linear-gradient-4" x1="22.6" y1="59" x2="22.6" y2="53" xlink:href="#linear-gradient-3"/><linearGradient id="linear-gradient-5" x1="28" y1="47" x2="28" y2="7" xlink:href="#linear-gradient-3"/><linearGradient id="linear-gradient-6" x1="28" y1="22" x2="28" y2="7" xlink:href="#linear-gradient-3"/><linearGradient id="linear-gradient-7" x1="49" y1="63" x2="49" y2="35" gradientUnits="userSpaceOnUse"><stop offset="0" stop-color="#9dd5df"/><stop offset="1" stop-color="#c3e1f5"/></linearGradient><linearGradient id="linear-gradient-8" x1="49" y1="56" x2="49" y2="42" gradientUnits="userSpaceOnUse"><stop offset="0" stop-color="#da5466"/><stop offset="1" stop-color="#f4929c"/></linearGradient></defs><title>Death</title><g id="Death"><path class="cls-1" d="M35.58,53H9V20a19,19,0,0,1,38,0V35.14"/><path class="cls-1" d="M35.58,53H9V20a19,19,0,0,1,38,0V35.14"/><path class="cls-2" d="M39.21,59H4.12A3.12,3.12,0,0,0,1,62.12V63H49Z"/><polygon class="cls-3" points="35.58 53 9 53 6 53 6 59 39.21 59 35.58 53"/><path class="cls-4" d="M41,37.52V20a13,13,0,0,0-26,0V47H35.14"/><path class="cls-5" d="M41,20v2a13,13,0,0,0-26,0V20a13,13,0,0,1,26,0Z"/><polygon class="cls-6" points="37 22 30 22 30 15 26 15 26 22 19 22 19 26 26 26 26 41 30 41 30 26 37 26 37 22"/><rect class="cls-7" x="6" y="57" width="36" height="2"/><rect class="cls-8" x="9" y="51" width="28" height="2"/><rect class="cls-7" x="15" y="45" width="25" height="2"/><circle class="cls-9" cx="49" cy="49" r="14"/><circle class="cls-10" cx="49" cy="49" r="7"/><path class="cls-11" d="M56,49a7,7,0,0,1-14,0,5.47,5.47,0,0,1,.08-1,7,7,0,0,0,13.84,0A5.47,5.47,0,0,1,56,49Z"/><path class="cls-12" d="M38,22a1,1,0,0,0-1-1H31V15a1,1,0,0,0-1-1H26a1,1,0,0,0-1,1v6H19a1,1,0,0,0-1,1v4a1,1,0,0,0,1,1h6V41a1,1,0,0,0,1,1h4a1,1,0,0,0,1-1V27h6a1,1,0,0,0,1-1Zm-2,3H30a1,1,0,0,0-1,1V40H27V26a1,1,0,0,0-1-1H20V23h6a1,1,0,0,0,1-1V16h2v6a1,1,0,0,0,1,1h6Z"/><path class="cls-12" d="M58,48H56.94a8.13,8.13,0,0,0-1.62-3.9h0l1.39-1.39a1,1,0,0,0-1.42-1.42L53.9,42.68h0A8.13,8.13,0,0,0,50,41.06V40a1,1,0,0,0-2,0v1.06a8.13,8.13,0,0,0-3.9,1.62h0l-1.39-1.39a1,1,0,0,0-1.42,1.42l1.39,1.39h0A8.13,8.13,0,0,0,41.06,48H40a1,1,0,0,0,0,2h1.06a8.13,8.13,0,0,0,1.62,3.9h0l-1.39,1.39a1,1,0,0,0,0,1.42,1,1,0,0,0,1.42,0l1.39-1.39h0A8.13,8.13,0,0,0,48,56.94V58a1,1,0,0,0,2,0V56.94a8.13,8.13,0,0,0,3.9-1.62h0l1.39,1.39a1,1,0,0,0,1.42,0,1,1,0,0,0,0-1.42L55.32,53.9h0A8.13,8.13,0,0,0,56.94,50H58a1,1,0,0,0,0-2ZM44.76,53.24A5.86,5.86,0,0,1,43.09,50h0a1,1,0,0,0,0-2h0A6,6,0,0,1,48,43.09h0a1,1,0,0,0,2,0h0A6,6,0,0,1,54.91,48h0a1,1,0,0,0,0,2h0A6,6,0,0,1,50,54.91h0a1,1,0,0,0-2,0h0A5.86,5.86,0,0,1,44.76,53.24Z"/><circle class="cls-12" cx="52" cy="48" r="1"/><circle class="cls-12" cx="49" cy="51" r="1"/><path class="cls-12" d="M49,34c-.34,0-.67,0-1,0V20A20,20,0,0,0,8,20V52H6a1,1,0,0,0-1,1v5H4.12A4.13,4.13,0,0,0,0,62.12V63a1,1,0,0,0,1,1H49a15,15,0,0,0,0-30ZM10,20A18,18,0,0,1,28,2,18,18,0,0,1,46,20V34.3a14.8,14.8,0,0,0-4,1.44V20a14,14,0,0,0-28,0V47a1,1,0,0,0,1,1H34c0,.33,0,.66,0,1a14.82,14.82,0,0,0,.3,3H10ZM34.3,46H16V20a12,12,0,0,1,24,0V37A15.08,15.08,0,0,0,34.3,46ZM7,54H34.86A15.09,15.09,0,0,0,37,58H7ZM2,62a2.13,2.13,0,0,1,2.12-2h34.7a14.37,14.37,0,0,0,2.71,2Zm47,0a13,13,0,0,1-9.06-3.69l0-.05a13,13,0,0,1,1.64-19.89l.18-.14A13,13,0,1,1,49,62Z"/><circle class="cls-12" cx="46.5" cy="47.5" r="1.5"/></g></svg>