<svg xmlns="http://www.w3.org/2000/svg" xmlns:xlink="http://www.w3.org/1999/xlink" viewBox="0 0 64 64"><defs><style>.cls-1{fill:url(#linear-gradient);}.cls-2{fill:url(#linear-gradient-2);}.cls-3{fill:url(#linear-gradient-3);}.cls-4{fill:url(#linear-gradient-4);}.cls-5{fill:#8288a1;}.cls-6{fill:#231f20;}</style><linearGradient id="linear-gradient" x1="18" y1="9.68" x2="18" y2="5" gradientUnits="userSpaceOnUse"><stop offset="0" stop-color="#a0a6ba"/><stop offset="1" stop-color="#c6ccda"/></linearGradient><linearGradient id="linear-gradient-2" x1="41.5" y1="63" x2="41.5" y2="31.86" gradientUnits="userSpaceOnUse"><stop offset="0" stop-color="#f2c4b0"/><stop offset="1" stop-color="#ffe3d7"/></linearGradient><linearGradient id="linear-gradient-3" x1="7" y1="17" x2="35" y2="17" xlink:href="#linear-gradient"/><linearGradient id="linear-gradient-4" x1="31" y1="39" x2="31" y2="28" gradientUnits="userSpaceOnUse"><stop offset="0" stop-color="#9dd5df"/><stop offset="1" stop-color="#c3e1f5"/></linearGradient></defs><title>Hand Wash</title><g id="Hand_Wash" data-name="Hand Wash"><polyline class="cls-1" points="15 9.68 15 5 21 5 21 9.68"/><path class="cls-2" d="M63,46V60H57.73a14.59,14.59,0,0,1-8.85,3H28.64A2.6,2.6,0,0,1,26,60.76,2.51,2.51,0,0,1,28.5,58H25.64a2.71,2.71,0,0,1-2.11-1A2.38,2.38,0,0,1,23,55.76,2.51,2.51,0,0,1,25.5,53H22.64a2.71,2.71,0,0,1-2.11-1A2.38,2.38,0,0,1,20,50.76,2.51,2.51,0,0,1,22.5,48h3A2.51,2.51,0,0,1,23,45.24,2.6,2.6,0,0,1,25.64,43H46.26l-4.89-4.89a4,4,0,0,1,0-5.66,2,2,0,0,1,2.83,0L51,39l.92.31a9.09,9.09,0,0,1,6,6.69Z"/><path class="cls-3" d="M35,23.26V25H28V24a4,4,0,0,0-4-4h-.26a7,7,0,0,1-10.63,1H7V11h6.11a7,7,0,0,1,10.63,1h0A11.26,11.26,0,0,1,35,23.26Z"/><path class="cls-4" d="M34.67,35.33a3.67,3.67,0,0,1-7.34,0C27.33,32.28,31,28,31,28S34.67,32.28,34.67,35.33Z"/><rect class="cls-5" x="1" y="10" width="6" height="12"/><path class="cls-6" d="M63,59H57.73a1,1,0,0,0-.61.21A13.67,13.67,0,0,1,48.88,62H28.64A1.59,1.59,0,0,1,27,60.66a1.48,1.48,0,0,1,.38-1.17A1.51,1.51,0,0,1,28.5,59a1,1,0,0,0,.25,0A1,1,0,0,0,29,59H39a1,1,0,0,0,0-2H29a1,1,0,0,0-.25,0,1,1,0,0,0-.25,0H25.64A1.59,1.59,0,0,1,24,55.66a1.48,1.48,0,0,1,.38-1.17A1.51,1.51,0,0,1,25.5,54H38a1,1,0,0,0,0-2H22.64A1.59,1.59,0,0,1,21,50.66a1.48,1.48,0,0,1,.38-1.17A1.51,1.51,0,0,1,22.5,49H37a1,1,0,0,0,0-2H25.5a1.51,1.51,0,0,1-1.11-.49A1.48,1.48,0,0,1,24,45.34,1.59,1.59,0,0,1,25.64,44H46.26a1,1,0,0,0,.92-.62A1,1,0,0,0,47,42.29L42.08,37.4a3,3,0,0,1,0-4.24,1,1,0,0,1,1.43,0l6.8,6.55a1,1,0,0,0,.37.23l.92.31a8.17,8.17,0,0,1,5.36,6,1,1,0,0,0,1,.78H63a1,1,0,0,0,0-2H58.7a10.17,10.17,0,0,0-6.46-6.64l-.71-.24-6.62-6.38a3.07,3.07,0,0,0-4.25,0,5,5,0,0,0,0,7.07L43.85,42H25.64A3.61,3.61,0,0,0,22,45.14,3.47,3.47,0,0,0,22.34,47,3.49,3.49,0,0,0,19,50.86,3.61,3.61,0,0,0,22.34,54,3.51,3.51,0,0,0,22,55.86,3.61,3.61,0,0,0,25.34,59,3.51,3.51,0,0,0,25,60.86,3.61,3.61,0,0,0,28.64,64H48.88a15.67,15.67,0,0,0,9.18-3H63a1,1,0,0,0,0-2Z"/><path class="cls-6" d="M24.24,21A3,3,0,0,1,27,24v1a1,1,0,0,0,1,1h7a1,1,0,0,0,1-1V23.26A12.27,12.27,0,0,0,24.25,11,8.13,8.13,0,0,0,22,9.08V5a1,1,0,0,0-1-1H19V2h6a1,1,0,0,0,0-2H11a1,1,0,0,0,0,2h6V4H15a1,1,0,0,0-1,1V9.08a7.68,7.68,0,0,0-1.28.92H8A1,1,0,0,0,7,9H1a1,1,0,0,0-1,1V22a1,1,0,0,0,1,1H7a1,1,0,0,0,1-1h4.72A7.9,7.9,0,0,0,18,24,8,8,0,0,0,24.24,21ZM16,6h4V8.26A8.37,8.37,0,0,0,18,8a7.89,7.89,0,0,0-2,.26ZM2,21V11H6V21Zm20.92-1.57a6,6,0,0,1-9.11.86,1,1,0,0,0-.7-.29H8V12h5.11a1,1,0,0,0,.7-.29,6,6,0,0,1,9.11.86,1,1,0,0,0,.82.43A10.27,10.27,0,0,1,34,23.26V24H29a5,5,0,0,0-5-5h-.26A1,1,0,0,0,22.92,19.43Z"/><path class="cls-6" d="M30.24,27.35c-.4.47-3.91,4.65-3.91,8a4.67,4.67,0,0,0,9.34,0c0-3.33-3.51-7.51-3.91-8A1,1,0,0,0,30.24,27.35ZM31,38a2.68,2.68,0,0,1-2.67-2.67c0-1.73,1.55-4.21,2.67-5.72,1.12,1.51,2.67,4,2.67,5.72A2.68,2.68,0,0,1,31,38Z"/></g></svg>