<svg xmlns="http://www.w3.org/2000/svg" xmlns:xlink="http://www.w3.org/1999/xlink" viewBox="0 0 64 64"><defs><style>.cls-1{fill:url(#linear-gradient);}.cls-2{fill:#5b8dc9;}.cls-3{fill:url(#linear-gradient-3);}.cls-4{fill:#77cacb;}.cls-5{fill:url(#linear-gradient-4);}.cls-6{fill:#cf4055;}.cls-7{fill:url(#linear-gradient-5);}.cls-8{fill:url(#linear-gradient-6);}.cls-9{fill:url(#linear-gradient-7);}.cls-10{fill:url(#linear-gradient-8);}.cls-11{fill:#231f20;}</style><linearGradient id="linear-gradient" x1="32" y1="63" x2="32" y2="1" gradientUnits="userSpaceOnUse"><stop offset="0" stop-color="#7aa8d7"/><stop offset="1" stop-color="#c3d2e7"/></linearGradient><linearGradient id="linear-gradient-3" x1="32" y1="57.73" x2="32" y2="6.25" gradientUnits="userSpaceOnUse"><stop offset="0" stop-color="#9dd5df"/><stop offset="1" stop-color="#c3e1f5"/></linearGradient><linearGradient id="linear-gradient-4" x1="32" y1="38" x2="32" y2="20" gradientUnits="userSpaceOnUse"><stop offset="0" stop-color="#da5466"/><stop offset="1" stop-color="#f4929c"/></linearGradient><linearGradient id="linear-gradient-5" x1="41.19" y1="21.81" x2="41.19" y2="17.81" xlink:href="#linear-gradient-4"/><linearGradient id="linear-gradient-6" x1="22.81" y1="21.81" x2="22.81" y2="17.81" xlink:href="#linear-gradient-4"/><linearGradient id="linear-gradient-7" x1="41.19" y1="39.81" x2="41.19" y2="35.81" xlink:href="#linear-gradient-4"/><linearGradient id="linear-gradient-8" x1="22.81" y1="39.81" x2="22.81" y2="35.81" xlink:href="#linear-gradient-4"/></defs><title>Protection</title><g id="Protection"><path class="cls-1" d="M32,63h0A36.84,36.84,0,0,1,6,27.8V5H7.35A77.93,77.93,0,0,0,32,1h0A77.93,77.93,0,0,0,56.65,5H58V27.8A36.84,36.84,0,0,1,32,63Z"/><path class="cls-1" d="M32,63h0A36.84,36.84,0,0,1,6,27.8V5H7.35A77.93,77.93,0,0,0,32,1h0A77.93,77.93,0,0,0,56.65,5H58V27.8A36.84,36.84,0,0,1,32,63Z"/><path class="cls-2" d="M58,25.8v2A36.84,36.84,0,0,1,32,63,36.84,36.84,0,0,1,6,27.8v-2A36.84,36.84,0,0,0,32,61,36.84,36.84,0,0,0,58,25.8Z"/><path class="cls-3" d="M32,57.73A31.66,31.66,0,0,1,11,27.8V9.92A82.48,82.48,0,0,0,32,6.25,82.48,82.48,0,0,0,53,9.92V27.8A31.66,31.66,0,0,1,32,57.73Z"/><path class="cls-4" d="M53,25.8v2A31.66,31.66,0,0,1,32,57.73,31.66,31.66,0,0,1,11,27.8v-2A31.66,31.66,0,0,0,32,55.73,31.66,31.66,0,0,0,53,25.8Z"/><circle class="cls-5" cx="32" cy="29" r="9"/><path class="cls-6" d="M38.36,35.36A9,9,0,0,1,23.06,28a9,9,0,0,0,17.88,0A8.92,8.92,0,0,1,38.36,35.36Z"/><path class="cls-6" d="M28.46,30.29a2,2,0,0,1-1.41-.58,2,2,0,0,1,0-2.83,2,2,0,0,1,2.83,0h0a2,2,0,0,1,0,2.83A2,2,0,0,1,28.46,30.29Zm0-2Z"/><circle class="cls-6" cx="34.83" cy="26.88" r="1.5"/><circle class="cls-6" cx="32" cy="33.24" r="1"/><path class="cls-7" d="M41.19,21.81a2,2,0,1,1,1.42-.59A2,2,0,0,1,41.19,21.81Zm0-2Z"/><path class="cls-8" d="M22.81,21.81a2,2,0,1,1,1.41-.59A2,2,0,0,1,22.81,21.81Zm0-2Z"/><path class="cls-9" d="M41.19,39.81a2,2,0,1,1,1.42-.59A2,2,0,0,1,41.19,39.81Zm0-2Z"/><path class="cls-10" d="M22.81,39.81a2,2,0,1,1,1.41-.59A2,2,0,0,1,22.81,39.81Zm0-2Z"/><path class="cls-11" d="M58,4H56.65A76.77,76.77,0,0,1,32.32.05a1,1,0,0,0-.64,0A76.77,76.77,0,0,1,7.35,4H6A1,1,0,0,0,5,5V27.8A37.65,37.65,0,0,0,31.71,64a1.07,1.07,0,0,0,.58,0A37.65,37.65,0,0,0,59,27.8V5A1,1,0,0,0,58,4ZM57,27.8A35.64,35.64,0,0,1,32,62,35.64,35.64,0,0,1,7,27.8V6h.35A78.79,78.79,0,0,0,32,2.05,78.79,78.79,0,0,0,56.65,6H57Z"/><path class="cls-11" d="M53,8.92A82.19,82.19,0,0,1,32.3,5.3a1,1,0,0,0-.6,0A82.19,82.19,0,0,1,11,8.92a1,1,0,0,0-1,1V27.8A32.47,32.47,0,0,0,31.66,58.67a1,1,0,0,0,.68,0A32.47,32.47,0,0,0,54,27.8V9.92A1,1,0,0,0,53,8.92ZM52,27.8A30.5,30.5,0,0,1,32,56.67,30.5,30.5,0,0,1,12,27.8V10.87A83.5,83.5,0,0,0,32,7.3a83.5,83.5,0,0,0,20,3.57Z"/><path class="cls-11" d="M31,17v2.06a10,10,0,0,0-5.33,2.2l-.94-.93a2,2,0,1,0-1.92,1.48,2.24,2.24,0,0,0,.51-.07l.94.94A9.93,9.93,0,0,0,22.06,28H20a1,1,0,0,0,0,2h2.07a9.93,9.93,0,0,0,2.2,5.32l-.94.94a2,2,0,1,0,1.41,1.42l.94-.94A9.93,9.93,0,0,0,31,39V41a1,1,0,0,0,2,0V39a9.93,9.93,0,0,0,5.33-2.2l.94.94a2,2,0,0,0,1.92,2.51,2,2,0,0,0,1.42-.59,2,2,0,0,0-1.93-3.34l-.94-.94A9.93,9.93,0,0,0,41.94,30H44a1,1,0,0,0,0-2H41.94a9.93,9.93,0,0,0-2.2-5.33l.94-.94a2.24,2.24,0,0,0,.51.07,2,2,0,1,0-1.92-1.48l-.94.93A10,10,0,0,0,33,19.06V17a1,1,0,0,0-2,0Zm5.24,7.76a1,1,0,0,0,1.42,0l.66-.65A8,8,0,0,1,40,29h0a8.07,8.07,0,0,1-1.68,4.89l-.66-.66a1,1,0,0,0-1.42,0,1,1,0,0,0,0,1.41l.66.66A7.92,7.92,0,0,1,32,37h0a7.92,7.92,0,0,1-4.89-1.68l.66-.66a1,1,0,0,0,0-1.41,1,1,0,0,0-1.42,0l-.66.66A8.07,8.07,0,0,1,24,29h0a8,8,0,0,1,1.68-4.89l.66.65a1,1,0,0,0,1.42-1.41l-.66-.66A8,8,0,0,1,32,21h0a8,8,0,0,1,4.89,1.68l-.66.66A1,1,0,0,0,36.24,24.76Z"/><path class="cls-11" d="M28.46,26.3h0a2,2,0,0,0,0,4h0a2,2,0,1,0,0-4Z"/><path class="cls-11" d="M33.77,25.82A1.5,1.5,0,1,0,35.89,28a1.5,1.5,0,0,0-2.12-2.13Z"/><path class="cls-11" d="M31.29,32.54a1,1,0,1,0,1.42,0A1,1,0,0,0,31.29,32.54Z"/></g></svg>