<svg id="Layer_1" enable-background="new 0 0 512 512" height="512" viewBox="0 0 512 512" width="512" xmlns="http://www.w3.org/2000/svg"><g><g><g><g><g><g id="XMLID_813_"><g id="XMLID_821_"><g id="XMLID_822_"><g id="XMLID_842_"><g id="XMLID_843_"><g id="XMLID_952_"><g id="XMLID_953_"><g id="XMLID_954_"><g id="XMLID_955_"><g id="XMLID_956_"><g id="XMLID_957_"><g id="XMLID_958_"><g id="XMLID_959_"><g id="XMLID_960_"><g id="XMLID_961_"><path d="m0 256c0-141.385 114.615-256 256-256s256 114.615 256 256c0 61.856-21.938 118.588-58.458 162.84-46.954 56.895-118.013-20.15-197.542-20.15-77.674 0-147.269 78.717-194.218 24.097-38.509-44.801-61.782-103.076-61.782-166.787z" fill="#0a617d"/></g></g></g></g></g></g></g></g></g></g></g></g></g></g></g></g></g></g></g><path d="m510.066 224.377-147.181-147.181-66.265 219.006 102.084 142.637c20.601 3.105 39.078-.902 54.838-19.999 36.52-44.252 58.458-100.984 58.458-162.84 0-10.707-.658-21.261-1.934-31.623z" fill="#08475e"/><g><path d="m450.21 382.88v39.9c-46.94 54.62-116.54 89.22-194.21 89.22s-147.27-34.6-194.21-89.22v-39.9c0-29.71 20.08-54.74 47.41-62.25 17.86-4.92 35.6-10.29 52.97-16.73-19.23-14.55-59.1-54.98-47.46-134.1.93-6.35 2-12.42 3.2-18.22 2.52-12.26 5.61-23.33 9.22-33.31 24.32-67.17 72.25-85.24 128.87-85.24s104.55 18.07 128.87 85.24c1.805 4.99-2.794 11.109-1.255 16.657 1.539 5.547 9.215 10.523 10.475 16.653 1.2 5.8 2.27 11.87 3.2 18.22 11.64 79.12-28.23 119.55-47.46 134.1 17.37 6.44 35.11 11.81 52.97 16.73 27.33 7.51 47.41 32.54 47.41 62.25z" fill="#fff"/><path d="m450.21 382.88v39.9c-46.94 54.62-116.54 89.22-194.21 89.22v-359.31c-.21-.02-.42-.04-.63-.05.21-.01.42-.01.63-.01v-119.6c56.62 0 104.55 18.07 128.87 85.24 1.8 4.99-2.79 11.11-1.25 16.66 1.53 5.54 9.21 10.52 10.47 16.65 1.2 5.8 2.27 11.87 3.2 18.22 11.64 79.12-28.23 119.55-47.46 134.1 17.37 6.44 35.11 11.81 52.97 16.73 27.33 7.51 47.41 32.54 47.41 62.25z" fill="#ecf9fb"/><g><g><path d="m174.65 118.27v33.31h-56.74c2.52-12.26 5.61-23.33 9.22-33.31z" fill="#08475e"/></g><g><path d="m394.09 151.58h-56.74v-33.31h47.52c3.61 9.98 6.7 21.05 9.22 33.31z" fill="#05303d"/></g></g><path d="m157.33 408.45v83.82c-11.17-4.66-21.95-10.11-32.25-16.25v-67.57z" fill="#d8f1fb"/><path d="m386.92 408.45v67.57c-10.3 6.14-21.08 11.59-32.25 16.25v-83.82z" fill="#bceaf9"/><path d="m256 86.722c-20.204 0-81.865 4.223-81.865 66.73 0 62.506 19.216 124.731 79.257 124.731s84.474-62.225 84.474-124.731c-.001-62.507-61.662-66.73-81.866-66.73z" fill="#71f4e4"/><path d="m337.87 153.45c0 7.14-.32 14.28-.98 21.33-.77 8.37-2.03 16.61-3.78 24.55-9.5 43.01-33.73 77.48-77.11 78.81v-125.45c-.21-.02-.42-.04-.63-.05.21-.01.42-.01.63-.01v-65.91c14.79 0 51.8 2.27 70.57 28.01 6.87 9.41 11.3 21.98 11.3 38.72z" fill="#1ed3c6"/><g><path d="m308.01 192.8c-25.67 0-30.72-19.32-38.37-31.16-3.37-5.24-7.25-9.01-13.64-9.01-18.85 0-15.87 32.83-42.48 39.13-2.82.67-5.98 1.04-9.53 1.04-21.26 0-35.84-20.27-33.87-43.17s7.09-34.91 31.93-42.42 53.95-7.51 53.95-7.51 5.57 0 13.91.63c9.28.7 21.98 2.17 34.28 5.29 1.94.49 3.86 1.02 5.76 1.59 24.84 7.51 29.96 19.52 31.93 42.42s-12.61 43.17-33.87 43.17z" fill="#ccc"/><path d="m336.89 174.78c-5.81 10.75-16.15 18.02-28.88 18.02-25.67 0-30.72-19.32-38.37-31.16-.23-.35-.46-.7-.69-1.04-3.22-4.69-6.99-7.97-12.95-7.97v-52.93s5.57 0 13.91.63c9.28.7 21.98 2.17 34.28 5.29 1.94.49 3.86 1.02 5.76 1.59 6.97 2.1 12.39 4.56 16.62 7.52 10.85 7.59 13.89 18.43 15.31 34.9.79 9.19-1.08 17.95-4.99 25.15z" fill="#a5a5a5"/><path d="m297.364 112.907-29.038 48.733c-3.37-5.24-7.25-9.01-13.64-9.01-18.85 0-15.87 32.83-42.48 39.13l43.783-75.771c9.28.7 29.075-6.202 41.375-3.082z" fill="#fff"/><g><path d="m297.36 112.91-4.05 6.8-19.32 32.43-5.04 8.46-.62 1.04c-3.13-4.87-6.71-8.47-12.33-8.95-.21-.02-.42-.04-.63-.05.21-.01.42-.01.63-.01v-36.64c.67.05 1.4.06 2.17.04h.07c9.95-.32 27.74-6.01 39.12-3.12z" fill="#d8f1fb"/></g><g><g><path d="m308.009 206.51c-28.745 0-39.879-15.168-46.53-24.231-.014-.019-.028-.039-.043-.059-2.693-3.653-8.178-3.653-10.871 0-.015.02-.029.039-.043.059-6.651 9.063-17.785 24.231-46.53 24.231-13.426 0-25.848-5.492-34.977-15.465-10.212-11.155-15.254-26.767-13.832-42.833 2.342-26.484 10.291-44.808 42.638-54.314 26.602-7.819 56.902-7.909 58.18-7.909 1.277 0 31.578.09 58.181 7.909 32.346 9.506 40.295 27.831 42.637 54.315 1.422 16.065-3.62 31.677-13.832 42.832-9.131 9.973-21.552 15.465-34.978 15.465zm-52.009-59.868c16.533 0 24.435 10.764 29.662 17.886 5.485 7.472 8.796 11.982 22.347 11.982 6.29 0 10.459-3.111 12.849-5.722 4.544-4.963 6.759-12.228 6.077-19.932-1.797-20.313-5.883-23.669-21.214-28.175-22.38-6.578-49.46-6.691-49.731-6.691-.25 0-27.33.114-49.709 6.691-17.334 5.095-19.626 10.208-21.215 28.175-.682 7.705 1.533 14.97 6.077 19.933 2.39 2.61 6.559 5.722 12.849 5.722 13.551 0 16.861-4.51 22.347-11.982 5.226-7.124 13.128-17.887 29.661-17.887z" fill="#0a617d"/></g></g><g><g><path d="m356.82 148.21c-2.34-26.48-10.29-44.81-42.64-54.31-26.6-7.82-56.9-7.91-58.18-7.91v30c.11 0 .87 0 2.17.04h.07c5.46.14 20.06.78 35.07 3.68 4.17.8 8.37 1.78 12.41 2.97 7.66 2.26 12.52 4.22 15.68 8.16s4.64 9.86 5.53 20.02c.69 7.7-1.53 14.97-6.07 19.93-2.39 2.61-6.56 5.72-12.85 5.72-13.55 0-16.86-4.51-22.35-11.98-2.81-3.83-6.39-8.7-11.67-12.39-4.54-3.2-10.35-5.5-17.99-5.5v5.99c-.21 0-.42 0-.63.01.21.01.42.03.63.05v26.79c2.04 0 4.09.92 5.44 2.74.01.02.02.04.04.06 6.65 9.06 17.78 24.23 46.53 24.23 9.05 0 17.66-2.5 25.1-7.18 3.59-2.26 6.91-5.03 9.88-8.28 10.21-11.16 15.25-26.77 13.83-42.84z" fill="#08475e"/></g></g></g><path d="" fill="#fff"/><path d="m256 152.63v.06c-.21-.02-.42-.04-.63-.05.21-.01.42-.01.63-.01z" fill="#d39754"/></g></g></svg>